<?xml version="1.0" standalone="no"?>
<!DOCTYPE svg PUBLIC "-//W3C//DTD SVG 20010904//EN"
 "http://www.w3.org/TR/2001/REC-SVG-20010904/DTD/svg10.dtd">
<svg version="1.0" xmlns="http://www.w3.org/2000/svg"
 width="300.000000pt" height="300.000000pt" viewBox="0 0 300.000000 300.000000"
 preserveAspectRatio="xMidYMid meet">
<metadata>
Created by potrace 1.10, written by Peter Selinger 2001-2011
</metadata>
<g transform="translate(0.000000,300.000000) scale(0.100000,-0.100000)"
fill="#000000" stroke="none">
<path d="M1526 2548 c-3 -7 -7 -32 -9 -55 -10 -85 -65 -126 -221 -165 -77 -19
-89 -20 -123 -7 -22 9 -46 28 -58 47 -19 30 -45 43 -45 22 0 -5 9 -24 20 -42
11 -18 20 -47 20 -63 0 -41 -63 -145 -131 -218 l-56 -59 -54 5 c-30 2 -64 8
-76 12 -35 11 -29 -20 6 -35 74 -30 94 -81 85 -216 l-7 -102 -61 6 -61 5 33
-37 c33 -38 41 -80 22 -115 -12 -23 -80 -51 -123 -51 l-32 0 31 -31 32 -31
128 1 c239 3 418 -44 624 -164 l45 -27 -63 61 c-113 110 -329 196 -524 208
l-87 6 16 23 c9 14 12 32 8 45 -7 21 -5 21 41 14 216 -32 472 -163 590 -303
l36 -43 55 61 c69 76 157 139 265 190 90 42 229 85 306 96 l49 6 -5 -30 c-2
-16 1 -33 7 -36 25 -16 6 -23 -76 -29 -162 -11 -340 -72 -460 -157 -61 -43
-135 -110 -121 -110 3 0 42 22 87 49 156 93 365 143 581 140 109 -1 120 1 149
22 39 28 39 39 2 39 -66 0 -131 45 -131 90 0 15 14 46 31 70 l31 43 -55 -5
-54 -4 -7 65 c-15 162 -3 205 67 245 37 20 48 45 17 38 -49 -12 -105 -12 -131
-2 -31 13 -112 108 -154 181 -31 55 -33 116 -5 152 11 14 20 30 20 36 0 21
-25 11 -45 -19 -28 -42 -76 -63 -128 -55 -83 13 -200 57 -235 90 -30 27 -36
39 -40 89 -4 54 -18 82 -26 54z m97 -208 c15 -7 27 -16 27 -20 0 -3 -58 -6
-129 -6 l-129 0 38 17 c21 10 53 31 71 48 l33 32 30 -29 c17 -15 43 -34 59
-42z m-375 -60 l67 0 -40 -21 c-48 -25 -130 -86 -167 -124 -37 -36 -35 -24 7
59 19 37 35 75 35 83 0 10 6 13 16 9 9 -3 46 -6 82 -6z m620 0 c35 0 52 -4 52
-12 0 -7 14 -42 32 -78 18 -36 34 -69 37 -75 2 -5 -20 12 -49 38 -30 27 -88
69 -129 93 -74 44 -75 45 -36 40 22 -3 64 -5 93 -6z m-227 -10 c207 -39 390
-220 443 -435 19 -79 27 -173 14 -181 -16 -10 -57 37 -70 78 -6 21 -13 38 -15
38 -2 0 -47 -22 -101 -49 -147 -74 -273 -178 -342 -283 l-37 -56 -41 62 c-68
103 -219 223 -365 291 -42 19 -78 35 -81 35 -3 0 -6 -11 -6 -24 0 -30 -40 -90
-64 -94 -18 -4 -19 1 -12 78 13 156 68 274 180 385 137 135 312 190 497 155z
m-632 -267 c-21 -43 -47 -102 -57 -131 l-19 -53 -6 46 c-4 25 -14 59 -22 75
-15 28 -14 31 2 36 40 13 68 31 102 66 20 21 37 37 38 38 1 0 -16 -35 -38 -77z
m1121 -18 c34 -17 35 -21 18 -79 -17 -61 -23 -62 -43 -9 -10 26 -31 72 -46
101 -16 29 -29 56 -29 59 0 3 16 -9 35 -26 19 -17 49 -38 65 -46z m-965 -330
c137 -81 271 -200 322 -285 11 -20 23 -28 34 -25 19 6 35 -23 20 -38 -8 -8
-64 44 -84 78 -32 57 -304 224 -392 241 -31 6 -50 24 -25 24 6 0 16 11 22 25
6 14 15 25 19 25 5 0 43 -20 84 -45z m840 18 c31 -36 31 -39 -6 -47 -53 -10
-211 -92 -281 -145 -36 -28 -85 -73 -109 -101 -23 -27 -44 -48 -47 -45 -11 11
113 157 178 210 56 46 223 155 237 155 2 0 15 -12 28 -27z m172 -45 c-12 -3
-33 -6 -46 -7 -23 -1 -23 0 -7 24 9 13 16 31 16 40 0 10 10 4 29 -17 29 -33
29 -33 8 -40z m-1243 35 c3 -10 9 -24 12 -30 6 -14 -32 -18 -61 -7 -14 6 -13
9 6 30 27 29 35 30 43 7z m1324 -191 c2 -7 -7 -12 -22 -12 -27 0 -35 15 -13
23 17 7 30 3 35 -11z"/>
<path d="M1524 2205 c-11 -24 -12 -190 -2 -200 4 -4 11 -4 17 0 13 7 14 170 1
200 -8 20 -8 20 -16 0z"/>
<path d="M1380 2100 c0 -24 20 -70 31 -70 18 0 19 22 3 55 -18 39 -34 46 -34
15z"/>
<path d="M1658 2100 c-19 -26 -24 -70 -8 -70 15 0 31 39 28 68 l-3 27 -17 -25z"/>
<path d="M1230 2103 c0 -14 53 -93 93 -138 28 -32 38 -37 48 -28 10 10 3 24
-33 70 -45 57 -108 113 -108 96z"/>
<path d="M1751 2034 c-59 -65 -71 -87 -52 -98 17 -11 131 128 131 159 0 17
-25 -3 -79 -61z"/>
<path d="M1457 1976 c-94 -34 -149 -113 -149 -215 0 -135 120 -245 249 -227
193 26 271 251 134 387 -65 66 -148 85 -234 55z m159 -51 c89 -45 125 -137 90
-230 -75 -195 -361 -139 -359 70 0 79 40 137 113 169 51 22 99 19 156 -9z"/>
<path d="M1155 1950 c-6 -10 27 -34 62 -44 35 -11 36 12 1 34 -36 22 -54 25
-63 10z"/>
<path d="M1865 1950 c-26 -10 -50 -38 -41 -48 4 -3 23 2 43 13 57 31 55 59 -2
35z"/>
<path d="M1075 1860 c8 -12 159 -60 191 -60 45 0 21 24 -47 47 -66 22 -155 31
-144 13z"/>
<path d="M1895 1863 c-51 -13 -125 -45 -125 -55 0 -21 196 25 225 53 9 9 -63
11 -100 2z"/>
<path d="M697 1342 c-32 -34 -134 -92 -160 -92 -21 0 -34 -20 -42 -60 l-6 -35
363 0 c404 0 466 -7 574 -65 77 -41 132 -41 210 1 42 23 91 38 169 51 97 17
150 19 440 16 216 -2 330 0 330 7 0 6 -4 24 -8 41 -7 27 -16 35 -67 53 -55 20
-160 92 -160 109 0 10 -147 5 -304 -9 -175 -17 -192 -27 -46 -28 111 -1 171
-8 234 -27 13 -4 16 -2 11 6 -10 16 12 30 46 30 27 0 103 -52 92 -64 -12 -11
-129 -6 -141 7 -18 17 -267 22 -375 8 -93 -13 -178 -33 -233 -56 l-35 -14 22
-31 23 -30 -24 -25 c-32 -35 -80 -42 -127 -19 -45 23 -53 47 -23 79 l22 24
-38 16 c-58 24 -136 43 -231 56 -109 14 -367 9 -385 -9 -7 -7 -38 -12 -76 -12
-72 0 -77 10 -22 48 41 28 90 30 97 3 4 -17 8 -17 66 -5 34 8 118 14 187 15
89 1 115 4 90 10 -49 11 -237 28 -348 31 l-93 3 -32 -33z m458 -123 c82 -10
252 -55 243 -64 -2 -3 -46 5 -98 17 -82 18 -140 21 -428 25 -299 5 -362 10
-297 26 41 10 493 7 580 -4z m255 -24 c0 -23 -14 -24 -38 -5 -32 27 -29 41 8
29 17 -6 30 -17 30 -24z m1110 19 c9 -9 -72 -13 -322 -17 -315 -5 -418 -13
-508 -42 -14 -4 -20 -3 -17 3 9 13 115 42 212 58 103 16 618 15 635 -2z m-820
-18 c-24 -16 -37 -20 -42 -13 -11 18 12 37 45 37 l31 0 -34 -24z"/>
<path d="M908 972 c-76 -9 -106 -107 -48 -155 16 -14 43 -28 59 -32 33 -7 56
-29 46 -45 -9 -15 -57 -12 -81 5 -19 13 -23 12 -44 -10 -25 -27 -21 -39 22
-61 47 -25 125 -14 155 20 28 33 30 85 6 115 -10 12 -40 30 -68 40 -27 10 -51
26 -53 34 -4 22 28 30 53 13 21 -14 24 -13 44 8 23 25 27 41 10 52 -18 11 -72
20 -101 16z"/>
<path d="M1181 833 c-24 -76 -46 -146 -49 -156 -4 -15 1 -17 34 -14 33 4 39 8
46 36 8 29 12 31 52 31 40 0 44 -2 52 -31 8 -27 14 -32 47 -34 26 -1 37 2 35
11 -2 7 -23 76 -48 153 l-45 141 -40 0 -41 0 -43 -137z m97 75 c19 -19 14 -28
-13 -28 -27 0 -28 1 -19 24 7 19 16 20 32 4z m11 -120 c1 -5 -11 -8 -25 -8
-24 0 -25 2 -19 33 11 50 18 54 31 16 7 -18 13 -37 13 -41z"/>
<path d="M1470 822 c0 -82 2 -151 4 -153 2 -2 45 -2 95 1 74 4 94 9 111 26 31
31 30 82 -3 108 -26 21 -26 22 -7 34 20 12 27 53 14 87 -12 29 -60 45 -139 45
l-75 0 0 -148z m145 53 c0 -15 -8 -21 -32 -23 -31 -3 -33 -1 -33 26 0 28 2 29
33 23 23 -5 32 -12 32 -26z m4 -99 c19 -23 2 -46 -35 -46 -31 0 -34 3 -34 30
0 26 3 30 29 30 16 0 34 -6 40 -14z"/>
<path d="M1816 818 l2 -153 36 -1 36 -1 0 153 0 154 -37 0 -38 0 1 -152z"/>
<path d="M2022 938 c3 -32 5 -33 50 -36 l46 -3 -1 -117 -2 -117 38 -2 37 -2 0
119 0 120 45 0 c45 0 45 0 45 35 l0 35 -131 0 -130 0 3 -32z m158 -23 c-7 -8
-17 -15 -22 -15 -5 0 -16 7 -24 15 -14 13 -11 15 22 15 31 0 35 -2 24 -15z"/>
<path d="M921 576 c-14 -17 -7 -36 14 -36 8 0 17 -5 21 -11 4 -7 -2 -9 -14 -7
-12 2 -22 -1 -24 -7 -2 -5 9 -11 25 -13 38 -5 48 24 16 50 -17 13 -19 18 -7
16 9 -2 18 2 20 7 5 16 -38 17 -51 1z"/>
<path d="M1020 580 c0 -5 5 -10 10 -10 6 0 10 -16 10 -35 0 -24 5 -35 15 -35
10 0 15 11 15 35 0 19 5 35 10 35 6 0 10 5 10 10 0 6 -16 10 -35 10 -19 0 -35
-4 -35 -10z"/>
<path d="M1130 557 c0 -54 47 -79 70 -38 15 30 13 71 -5 71 -11 0 -15 -11 -15
-36 0 -45 -24 -42 -28 4 -4 42 -22 41 -22 -1z"/>
<path d="M1250 545 c0 -41 2 -45 23 -45 24 0 57 28 57 48 0 19 -31 42 -56 42
-22 0 -24 -4 -24 -45z m45 0 c0 -10 -6 -20 -12 -22 -8 -3 -13 5 -13 22 0 17 5
25 13 23 6 -3 12 -13 12 -23z"/>
<path d="M1364 568 c9 -12 16 -33 16 -45 0 -14 6 -23 15 -23 9 0 15 9 15 24 0
13 7 29 15 36 19 16 19 30 1 30 -8 0 -17 -8 -21 -17 -6 -17 -7 -17 -16 0 -6 9
-17 17 -25 17 -13 0 -13 -3 0 -22z"/>
<path d="M1552 578 c-30 -30 -4 -82 40 -76 29 4 25 23 -5 23 -15 0 -22 6 -22
20 0 14 7 20 22 20 13 0 23 5 23 10 1 15 -43 18 -58 3z"/>
<path d="M1660 545 c0 -43 1 -45 29 -45 17 0 33 5 36 10 4 6 -5 10 -19 10 -14
0 -26 5 -26 10 0 6 7 10 15 10 21 0 19 18 -2 23 -11 3 -7 5 10 6 40 2 33 21
-8 21 -35 0 -35 0 -35 -45z"/>
<path d="M1770 545 c0 -25 5 -45 10 -45 6 0 10 10 10 23 l1 22 18 -22 c29 -35
41 -28 41 22 0 33 -4 45 -15 45 -9 0 -15 -9 -16 -22 l0 -23 -16 23 c-23 33
-33 27 -33 -23z"/>
<path d="M1880 580 c0 -5 7 -10 15 -10 11 0 15 -11 15 -36 0 -24 4 -34 13 -31
6 2 11 16 9 31 -2 16 3 29 13 32 28 11 15 24 -25 24 -22 0 -40 -4 -40 -10z"/>
<path d="M2000 545 c0 -45 0 -45 35 -45 19 0 35 5 35 10 0 6 -11 10 -25 10
-31 0 -33 17 -2 23 22 4 22 4 -3 15 l-25 11 28 0 c40 1 33 21 -8 21 -35 0 -35
0 -35 -45z"/>
<path d="M2110 546 c0 -25 5 -46 10 -46 6 0 10 7 10 15 0 8 4 15 9 15 5 0 11
-7 15 -15 11 -29 23 -14 22 28 -1 40 -3 42 -33 45 -33 3 -33 3 -33 -42z"/>
</g>
</svg>
